<?xml version="1.0"?>
<svg xmlns="http://www.w3.org/2000/svg" xmlns:xlink="http://www.w3.org/1999/xlink" xmlns:svgjs="http://svgjs.com/svgjs" version="1.1" width="512" height="512" x="0" y="0" viewBox="0 0 93.562 93.562" style="enable-background:new 0 0 512 512" xml:space="preserve" class=""><g transform="matrix(0.7,0,0,0.7,14.034300613403325,14.034300613403325)">
<g xmlns="http://www.w3.org/2000/svg">
	<path d="M87.952,41.17l-36.386,0.11V5.61c0-3.108-2.502-5.61-5.61-5.61c-3.107,0-5.61,2.502-5.61,5.61l0.11,35.561H5.61   c-3.108,0-5.61,2.502-5.61,5.61c0,3.107,2.502,5.609,5.61,5.609h34.791v35.562c0,3.106,2.502,5.61,5.61,5.61   c3.108,0,5.61-2.504,5.61-5.61V52.391h36.331c3.108,0,5.61-2.504,5.61-5.61C93.562,43.672,91.032,41.17,87.952,41.17z" fill="#7c7c7c" data-original="#000000" style="" class=""/>
</g>
<g xmlns="http://www.w3.org/2000/svg">
</g>
<g xmlns="http://www.w3.org/2000/svg">
</g>
<g xmlns="http://www.w3.org/2000/svg">
</g>
<g xmlns="http://www.w3.org/2000/svg">
</g>
<g xmlns="http://www.w3.org/2000/svg">
</g>
<g xmlns="http://www.w3.org/2000/svg">
</g>
<g xmlns="http://www.w3.org/2000/svg">
</g>
<g xmlns="http://www.w3.org/2000/svg">
</g>
<g xmlns="http://www.w3.org/2000/svg">
</g>
<g xmlns="http://www.w3.org/2000/svg">
</g>
<g xmlns="http://www.w3.org/2000/svg">
</g>
<g xmlns="http://www.w3.org/2000/svg">
</g>
<g xmlns="http://www.w3.org/2000/svg">
</g>
<g xmlns="http://www.w3.org/2000/svg">
</g>
<g xmlns="http://www.w3.org/2000/svg">
</g>
</g></svg>
